<?xml version="1.0" encoding="UTF-8" standalone="no"?><!DOCTYPE svg PUBLIC "-//W3C//DTD SVG 1.1//EN" "http://www.w3.org/Graphics/SVG/1.1/DTD/svg11.dtd"><svg width="100%" height="100%" viewBox="0 0 75 105" version="1.1" xmlns="http://www.w3.org/2000/svg" xmlns:xlink="http://www.w3.org/1999/xlink" xml:space="preserve" xmlns:serif="http://www.serif.com/" style="fill-rule:evenodd;clip-rule:evenodd;stroke-linejoin:round;stroke-miterlimit:2;"><g><path d="M39.055,75.923c0.139,-0.002 0.278,-0.005 0.417,-0.007c0.059,-0.095 0.403,0.09 0.264,-0.422c-2.569,-9.468 -32.379,-30.325 -17.987,-49.624c13.288,-17.819 46.374,-2.772 30.613,25.07c-0.357,0.63 -7.34,12.317 -10.253,12.188c-1.651,-0.073 -4.009,-2.157 -1.611,-4.968c3.648,-4.275 18.537,-20.607 5.417,-31.832c-9.776,-8.364 -32.807,1.992 -17.565,24.586c7.17,10.629 9.264,9.182 18.836,26.416c3.179,5.724 4.737,7.176 3.007,9.356c-4.911,6.19 -5.853,6.815 -10.383,16.688c-1.518,3.31 -1.385,-0.693 -1.381,-0.821c0.325,-9.748 -0.63,-14.527 0.884,-15.89c4.568,-4.111 -3.463,-8.606 -5.095,-3.753c-0.972,2.889 1.826,3.748 1.871,5.236c0.04,1.306 0.481,15.843 0.037,16.326c-1.334,1.452 -0.905,-4.208 -10.798,-16.596c-2.989,-3.743 -1.138,-4.241 1.739,-9.428c4.356,-7.853 4.769,-10.778 7.041,-8.884c1.859,1.55 4.598,5.816 4.946,6.358Z"/><path d="M40.787,0.054c1.743,0.261 12.726,1.909 20.347,8.44c10.29,8.819 18.453,25.875 9.179,45.99c-0.923,2.002 -5.6,12.146 -14.451,23.461c-1.683,2.152 -7.284,0.859 -3.569,-4.511c9.689,-14.005 27.406,-35.478 8.382,-57.984c-13.762,-16.281 -47.742,-14.082 -54.713,15.556c-4.844,20.596 18.88,42.458 17.628,46.183c-0.168,0.501 -2.497,4.039 -5.288,0.348c-19.508,-25.801 -18.482,-38.934 -18.193,-42.631c1.044,-13.362 11.109,-36.158 40.678,-34.854Z"/></g></svg>