<?xml version="1.0" encoding="UTF-8" standalone="no"?>
<!DOCTYPE svg PUBLIC "-//W3C//DTD SVG 1.1//EN" "http://www.w3.org/Graphics/SVG/1.1/DTD/svg11.dtd">
<svg width="100%" height="100%" viewBox="0 0 1110 484" version="1.1" xmlns="http://www.w3.org/2000/svg" xmlns:xlink="http://www.w3.org/1999/xlink" xml:space="preserve" xmlns:serif="http://www.serif.com/" style="fill-rule:evenodd;clip-rule:evenodd;stroke-linejoin:round;stroke-miterlimit:2;">
    <g transform="matrix(1,0,0,1,-342.161119,-2111.964718)">
        <g id="logo-v1-horizontal" serif:id="logo v1-horizontal" transform="matrix(0.768224,0,0,1,313.878502,-79.856113)">
            <rect x="36.816" y="2191.821" width="1444.103" height="483.018" style="fill:none;"/>
            <g transform="matrix(1.301704,0,0,1,-1316.309707,2634.115005)">
                <g transform="matrix(0.430725,0,0,0.433203,1014.263106,-579.950808)">
                    <g transform="matrix(1.818319,0,0,1.818319,47.743969,401.266812)">
                        <path d="M198.522,314.469C198.84,314.464 199.159,314.459 199.477,314.453C199.613,314.237 200.4,314.658 200.082,313.487C194.196,291.792 125.886,243.998 158.864,199.774C189.313,158.942 265.13,193.421 229.013,257.222C228.196,258.666 212.195,285.446 205.518,285.151C201.734,284.984 196.331,280.209 201.828,273.768C210.187,263.971 244.306,226.546 214.24,200.824C191.838,181.659 139.063,205.389 173.99,257.163C190.42,281.519 195.219,278.204 217.153,317.694C224.438,330.811 228.008,334.138 224.044,339.135C212.791,353.318 210.631,354.751 200.253,377.374C196.773,384.959 197.079,375.787 197.088,375.492C197.833,353.155 195.645,342.204 199.115,339.081C209.582,329.661 191.179,319.361 187.439,330.48C185.213,337.1 191.624,339.069 191.727,342.479C191.818,345.471 192.83,378.784 191.813,379.891C188.757,383.217 189.738,370.249 167.069,341.861C160.22,333.284 164.461,332.141 171.054,320.256C181.036,302.26 181.982,295.559 187.187,299.899C191.446,303.45 197.724,313.226 198.522,314.469Z"/>
                    </g>
                    <g transform="matrix(1.818319,0,0,1.818319,47.743969,401.266812)">
                        <path d="M202.49,140.616C206.484,141.215 231.652,144.99 249.114,159.956C272.695,180.166 291.399,219.248 270.147,265.342C268.032,269.929 257.315,293.174 237.033,319.102C233.175,324.034 220.342,321.07 228.853,308.767C251.055,276.673 291.653,227.469 248.06,175.897C216.524,138.589 138.659,143.629 122.686,211.543C111.586,258.738 165.951,308.836 163.081,317.372C162.695,318.52 157.358,326.627 150.964,318.17C106.261,259.047 108.614,228.953 109.276,220.482C111.669,189.864 134.732,137.627 202.49,140.616Z"/>
                    </g>
                </g>
                <g transform="matrix(1.439076,0,0,1.439076,-527.644056,-1895.277784)">
                    <g transform="matrix(2.086533,0,0,2.086533,669.655143,-1279.869859)">
                        <g transform="matrix(50,0,0,50,282.644269,1196.09108)">
                            <path d="M0.25,-0L0.25,-0.636L0.004,-0.636L0.004,-0.7L0.57,-0.7L0.57,-0.636L0.324,-0.636L0.324,-0L0.25,-0Z" style="fill-rule:nonzero;"/>
                        </g>
                        <g transform="matrix(50,0,0,50,310.644269,1196.09108)">
                            <path d="M0.316,0.005C0.271,0.005 0.232,-0.004 0.199,-0.02C0.165,-0.037 0.14,-0.062 0.121,-0.095C0.103,-0.129 0.094,-0.17 0.094,-0.221L0.094,-0.525L0.165,-0.525L0.165,-0.228C0.165,-0.172 0.179,-0.13 0.206,-0.102C0.234,-0.073 0.273,-0.059 0.323,-0.059C0.36,-0.059 0.392,-0.067 0.418,-0.082C0.445,-0.097 0.466,-0.119 0.48,-0.147C0.495,-0.176 0.502,-0.21 0.502,-0.25L0.502,-0.525L0.573,-0.525L0.573,-0L0.505,-0L0.505,-0.144L0.516,-0.118C0.5,-0.079 0.474,-0.049 0.439,-0.028C0.404,-0.006 0.363,0.005 0.316,0.005Z" style="fill-rule:nonzero;"/>
                        </g>
                        <g transform="matrix(50,0,0,50,344.244269,1196.09108)">
                            <path d="M0.265,0.005C0.216,0.005 0.178,-0.009 0.151,-0.035C0.124,-0.062 0.111,-0.1 0.111,-0.148L0.111,-0.641L0.182,-0.641L0.182,-0.152C0.182,-0.121 0.19,-0.097 0.205,-0.081C0.221,-0.064 0.243,-0.056 0.273,-0.056C0.304,-0.056 0.33,-0.065 0.351,-0.083L0.376,-0.032C0.362,-0.019 0.345,-0.01 0.326,-0.004C0.306,0.002 0.286,0.005 0.265,0.005ZM0.017,-0.466L0.017,-0.525L0.342,-0.525L0.342,-0.466L0.017,-0.466Z" style="fill-rule:nonzero;"/>
                        </g>
                        <g transform="matrix(50,0,0,50,363.594269,1196.09108)">
                            <path d="M0.314,0.005C0.262,0.005 0.217,-0.007 0.176,-0.03C0.136,-0.053 0.104,-0.084 0.081,-0.125C0.058,-0.165 0.046,-0.211 0.046,-0.263C0.046,-0.315 0.058,-0.362 0.081,-0.402C0.105,-0.442 0.136,-0.473 0.176,-0.496C0.216,-0.519 0.262,-0.53 0.314,-0.53C0.365,-0.53 0.411,-0.519 0.451,-0.496C0.492,-0.473 0.523,-0.442 0.546,-0.402C0.569,-0.362 0.581,-0.316 0.581,-0.263C0.581,-0.211 0.569,-0.165 0.546,-0.125C0.523,-0.084 0.492,-0.053 0.451,-0.03C0.411,-0.007 0.365,0.005 0.314,0.005ZM0.314,-0.058C0.351,-0.058 0.385,-0.066 0.414,-0.084C0.444,-0.101 0.467,-0.125 0.484,-0.156C0.501,-0.187 0.509,-0.222 0.509,-0.263C0.509,-0.304 0.501,-0.34 0.484,-0.371C0.467,-0.401 0.444,-0.425 0.414,-0.442C0.385,-0.459 0.351,-0.468 0.314,-0.468C0.276,-0.468 0.243,-0.459 0.214,-0.442C0.184,-0.425 0.161,-0.401 0.144,-0.371C0.126,-0.34 0.118,-0.304 0.118,-0.263C0.118,-0.222 0.126,-0.187 0.144,-0.156C0.161,-0.125 0.184,-0.101 0.214,-0.084C0.243,-0.066 0.276,-0.058 0.314,-0.058Z" style="fill-rule:nonzero;"/>
                        </g>
                        <g transform="matrix(50,0,0,50,394.944269,1196.09108)">
                            <path d="M0.099,-0L0.099,-0.525L0.167,-0.525L0.167,-0.382L0.16,-0.407C0.175,-0.447 0.2,-0.477 0.234,-0.498C0.269,-0.52 0.312,-0.53 0.363,-0.53L0.363,-0.461C0.361,-0.461 0.358,-0.462 0.355,-0.462C0.352,-0.462 0.35,-0.462 0.347,-0.462C0.292,-0.462 0.249,-0.445 0.217,-0.412C0.186,-0.378 0.17,-0.33 0.17,-0.268L0.17,-0L0.099,-0Z" style="fill-rule:nonzero;"/>
                        </g>
                        <g transform="matrix(50,0,0,50,414.994269,1196.09108)">
                        </g>
                    </g>
                    <g transform="matrix(2.086533,0,0,2.086533,684.438209,-1259.76454)">
                        <g transform="matrix(50,0,0,50,537.673048,1185.88482)">
                        </g>
                        <text x="418.728px" y="1185.885px" style="font-family:'IstokWeb-Bold', 'Istok Web', sans-serif;font-weight:700;font-size:50px;">Atlas</text>
                    </g>
                </g>
            </g>
        </g>
    </g>
</svg>
